<?xml version="1.0" encoding="utf-8"?>
<!-- Generator: Adobe Illustrator 19.2.1, SVG Export Plug-In . SVG Version: 6.00 Build 0)  -->
<svg version="1.1" id="Capa_1" xmlns="http://www.w3.org/2000/svg" xmlns:xlink="http://www.w3.org/1999/xlink" x="0px" y="0px"
	 width="50px" height="50px" viewBox="0 0 50 50" style="enable-background:new 0 0 50 50;" xml:space="preserve">
<style type="text/css">
	.st0{fill:#5877AB;stroke:#88ADD7;stroke-width:2;stroke-linecap:square;stroke-miterlimit:10;}
	.st1{fill:#AFCBE9;}
	.st2{fill:#5877AB;stroke:#AFCBE9;stroke-width:1.5;stroke-linecap:square;stroke-miterlimit:10;}
</style>
<g>
	<circle class="st0" cx="25" cy="25" r="24"/>
	<path class="st1" d="M13.8,16.5L20.4,31h-2l-1.6-3.6h-5.9L9.3,31h-2L13.8,16.5z M13.8,20.9l-2.2,5h4.5L13.8,20.9z"/>
	<path class="st1" d="M22.1,17H24V31h-1.9V17z"/>
	<path class="st1" d="M17.5,35.8c0,0,9,7.3,18.1,0C35.6,35.8,26,45.7,17.5,35.8z"/>
	<g transform="translate(0, 0)">
		<path class="st2" d="M27.2,27.3c0-4.6,7.4-12,7.4-12s7.4,7.4,7.4,12c0,4.7-3.8,7.4-7.4,7.4S27.2,31.9,27.2,27.3z"/>
		<path class="st2" d="M34.6,30.1c-0.8,0-2.8-0.5-2.8-2.8"/>
	</g>
</g>
</svg>
