<?xml version="1.0" encoding="utf-8"?>
<!-- Generator: Adobe Illustrator 19.2.1, SVG Export Plug-In . SVG Version: 6.00 Build 0)  -->
<svg version="1.1" id="Capa_1" xmlns="http://www.w3.org/2000/svg" xmlns:xlink="http://www.w3.org/1999/xlink" x="0px" y="0px"
	 width="50px" height="50px" viewBox="0 0 50 50" style="enable-background:new 0 0 50 50;" xml:space="preserve">
<style type="text/css">
	.st0{fill:#5877AB;stroke:#88ADD7;stroke-width:2;stroke-linecap:square;stroke-miterlimit:10;}
	.st1{fill:#AFCBE9;}
</style>
<title>registroProp</title>
<circle class="st0" cx="25" cy="25" r="24"/>
<g>
	<path class="st1" d="M13.8,16.5L20.4,31h-2l-1.6-3.6h-5.9L9.3,31h-2L13.8,16.5z M13.8,20.9l-2.2,5h4.5L13.8,20.9z"/>
	<path class="st1" d="M22.1,17H24V31h-1.9V17z"/>
	<path class="st1" d="M26.5,23.9c0-2,0.8-3.7,2.3-5.2s3.3-2.2,5.5-2.2c2.1,0,3.9,0.7,5.4,2.2c1.5,1.4,2.3,3.2,2.3,5.1
		c0,2.1-0.7,3.9-2.2,5.3c-1.5,1.5-3.3,2.2-5.5,2.2c-2.1,0-3.9-0.7-5.4-2.2C27.2,27.8,26.5,26,26.5,23.9z M39.8,24
		c0-1.5-0.6-2.8-1.7-3.9c-1.1-1.1-2.5-1.6-4.1-1.6c-1.5,0-2.9,0.5-4,1.6c-1.1,1.1-1.6,2.4-1.6,3.9c0,1.5,0.6,2.8,1.7,3.9
		s2.5,1.6,4.1,1.6c1.5,0,2.8-0.5,3.9-1.6C39.3,26.8,39.8,25.5,39.8,24z"/>
</g>
<path class="st1" d="M17.5,34.4c0,0,9,7.3,18.1,0C35.6,34.4,26,44.3,17.5,34.4z"/>
</svg>
